<svg xmlns="http://www.w3.org/2000/svg" viewBox="0 0 320 400" width="320" height="400">
	<style>
		tspan { white-space:pre }
		.shp0 { fill: #ffffff } 
	</style>
	<g id="Price">
		<g id="Why Join">
			<g id="2">
				<path id="Rectangle 751" fill-rule="evenodd" class="shp0" d="M10 0L310 0C315.52 0 320 4.48 320 10L320 390C320 395.52 315.52 400 310 400C310 395.58 305.52 392 300 392C294.48 392 290 395.58 290 400L282 400C282 395.58 277.52 392 272 392C266.48 392 262 395.58 262 400L254 400C254 395.58 249.52 392 244 392C238.48 392 234 395.58 234 400L226 400C226 395.58 221.52 392 216 392C210.48 392 206 395.58 206 400L198 400C198 395.58 193.52 392 188 392C182.48 392 178 395.58 178 400L170 400C170 395.58 165.52 392 160 392C154.48 392 150 395.58 150 400L142 400C142 395.58 137.52 392 132 392C126.48 392 122 395.58 122 400L114 400C114 395.58 109.52 392 104 392C98.48 392 94 395.58 94 400L86 400C86 395.58 81.52 392 76 392C70.48 392 66 395.58 66 400L58 400C58 395.58 53.52 392 48 392C42.48 392 38 395.58 38 400L30 400C30 395.58 25.52 392 20 392C14.48 392 10 395.58 10 400C4.48 400 0 395.52 0 390L0 10C0 4.48 4.48 0 10 0Z" />
			</g>
		</g>
	</g>
</svg>