<svg xmlns="http://www.w3.org/2000/svg" viewBox="0 0 55 52" width="55" height="52">
	<style>
		tspan { white-space:pre }
		.shp0 { fill: #9c3cd2 } 
	</style>
	<g id="Location">
		<g id="Text">
			<path id="Shape 623" class="shp0" d="M24.28 50.91C24.28 50.32 23.8 49.83 23.2 49.83C22.61 49.83 22.13 50.32 22.13 50.91C22.13 51.51 22.61 52 23.2 52C23.8 52 24.28 51.51 24.28 50.91L24.28 50.91ZM24.28 50.91M9.88 29.9C10.08 30.16 10.4 30.33 10.74 30.33L29.22 30.33C31.59 30.33 33.52 32.27 33.52 34.66C33.52 37.05 31.59 39 29.22 39L10.74 39C7.19 39 4.3 41.91 4.3 45.5C4.3 49.08 7.19 52 10.74 52L18.91 52C19.5 52 19.98 51.51 19.98 50.91C19.98 50.32 19.5 49.83 18.91 49.83L10.74 49.83C8.37 49.83 6.45 47.89 6.45 45.5C6.45 43.11 8.37 41.16 10.74 41.16L29.22 41.16C32.77 41.16 35.66 38.25 35.66 34.66C35.66 31.08 32.77 28.16 29.22 28.16L12.84 28.16C15.48 24.4 21.48 15.41 21.48 10.83C21.48 4.86 16.67 0 10.74 0C4.82 0 0 4.86 0 10.83C0 15.76 7.18 26.26 9.88 29.9L9.88 29.9ZM10.74 2.16C15.48 2.16 19.34 6.05 19.34 10.83C19.34 14.56 13.75 23.18 10.74 27.41C7.73 23.18 2.15 14.56 2.15 10.83C2.15 6.05 6 2.16 10.74 2.16L10.74 2.16ZM10.74 2.16M16.11 10.83C16.11 7.84 13.7 5.41 10.74 5.41C7.78 5.41 5.37 7.84 5.37 10.83C5.37 13.82 7.78 16.25 10.74 16.25C13.7 16.25 16.11 13.82 16.11 10.83L16.11 10.83ZM7.52 10.83C7.52 9.04 8.96 7.58 10.74 7.58C12.52 7.58 13.96 9.04 13.96 10.83C13.96 12.62 12.52 14.08 10.74 14.08C8.96 14.08 7.52 12.62 7.52 10.83L7.52 10.83ZM7.52 10.83M26.43 50.91C26.43 51.51 26.91 52 27.5 52L41.04 52C41.63 52 42.11 51.51 42.11 50.91L42.11 39L53.93 39C54.52 39 55 38.51 55 37.91L55 24.91C55 24.32 54.52 23.83 53.93 23.83L41.04 23.83C40.44 23.83 39.96 24.32 39.96 24.91L39.96 49.83L27.5 49.83C26.91 49.83 26.43 50.32 26.43 50.91L26.43 50.91ZM42.11 26L52.85 26L52.85 36.83L42.11 36.83L42.11 26ZM42.11 26" />
		</g>
	</g>
</svg>