<svg xmlns="http://www.w3.org/2000/svg" viewBox="0 0 56 52" width="56" height="52">
	<style>
		tspan { white-space:pre }
		.shp0 { fill: #a95cd4 } 
	</style>
	<g id="Location">
		<g id="Text">
			<path id="Shape 658" class="shp0" d="M9 45C6.04 45 3 42.94 3 40C3 37.06 6.04 35 9 35L19 35C23.76 35 28 30.74 28 26C28 21.26 23.76 17 19 17L13 17C13.11 17.53 13.56 18.48 13.56 19.04C13.56 19.59 13.11 19.47 13 20L19 20C21.96 20 25 23.06 25 26C25 28.94 21.96 32 19 32L9 32C4.24 32 0 35.18 0 39.92C0 44.66 4.24 48 9 48L36 48C35.89 47.47 35.44 47.44 35.44 46.89C35.44 46.33 35.89 45.53 36 45L9 45ZM43.86 41.77C41.02 41.77 38.72 44.07 38.72 46.89C38.72 49.7 41.02 52 43.86 52C46.69 52 49 49.7 49 46.89C49 44.07 46.69 41.77 43.86 41.77ZM5.14 24.15C7.98 24.15 10.28 21.85 10.28 19.04C10.28 16.79 9.03 14.68 7 14L7 10L15 10C15.91 10 17 8.9 17 8L17 2C17 1.1 15.91 0 15 0L6 0C5.09 0 4 1.1 4 2C4 3.35 4 12.64 4 14C1.97 14.68 0 16.79 0 19.04C0 21.85 2.31 24.15 5.14 24.15ZM43.86 3.48C37.16 3.48 31.72 8.9 31.72 15.55C31.72 19.15 33.29 22.5 36.05 24.8L42.4 35.18C43.01 36.37 44.71 36.37 45.32 35.18L51.67 24.8C54.43 22.5 56 19.15 56 15.55C56 8.9 50.55 3.48 43.86 3.48ZM43.86 20.67C41.02 20.67 38.72 18.37 38.72 15.55C38.72 12.74 41.02 10.44 43.86 10.44C46.69 10.44 49 12.74 49 15.55C49 18.37 46.69 20.67 43.86 20.67Z" />
		</g>
	</g>
</svg>