<svg xmlns="http://www.w3.org/2000/svg" viewBox="0 0 110 146" width="110" height="146">
	<style>
		tspan { white-space:pre }
		.shp0 { fill: #e3e3e6 } 
	</style>
	<g id="Testimonial">
		<path id="Shape 817 copy" class="shp0" d="M75.4 3.13C75.4 4.85 74.02 6.25 72.31 6.25C70.6 6.25 69.22 4.85 69.22 3.13C69.22 1.41 70.6 0.01 72.31 0.01C74.02 0.01 75.4 1.41 75.4 3.13ZM110.01 3.13C110.01 4.85 108.63 6.25 106.92 6.25C105.22 6.25 103.83 4.85 103.83 3.13C103.83 1.41 105.22 0.01 106.92 0.01C108.63 0.01 110.01 1.41 110.01 3.13ZM75.4 38.06C75.4 39.79 74.02 41.18 72.31 41.18C70.6 41.18 69.22 39.79 69.22 38.06C69.22 36.34 70.6 34.95 72.31 34.95C74.02 34.95 75.4 36.34 75.4 38.06ZM110.01 38.06C110.01 39.79 108.63 41.18 106.92 41.18C105.22 41.18 103.83 39.79 103.83 38.06C103.83 36.34 105.22 34.95 106.92 34.95C108.63 34.95 110.01 36.34 110.01 38.06ZM75.4 73C75.4 74.72 74.02 76.12 72.31 76.12C70.6 76.12 69.22 74.72 69.22 73C69.22 71.28 70.6 69.88 72.31 69.88C74.02 69.88 75.4 71.28 75.4 73ZM110.01 73C110.01 74.72 108.63 76.12 106.92 76.12C105.22 76.12 103.83 74.72 103.83 73C103.83 71.28 105.22 69.88 106.92 69.88C108.63 69.88 110.01 71.28 110.01 73ZM75.4 107.93C75.4 109.66 74.02 111.05 72.31 111.05C70.6 111.05 69.22 109.66 69.22 107.93C69.22 106.21 70.6 104.82 72.31 104.82C74.02 104.82 75.4 106.21 75.4 107.93ZM110.01 107.93C110.01 109.66 108.63 111.05 106.92 111.05C105.22 111.05 103.83 109.66 103.83 107.93C103.83 106.21 105.22 104.82 106.92 104.82C108.63 104.82 110.01 106.21 110.01 107.93ZM75.4 142.87C75.4 144.59 74.02 145.99 72.31 145.99C70.6 145.99 69.22 144.59 69.22 142.87C69.22 141.15 70.6 139.75 72.31 139.75C74.02 139.75 75.4 141.15 75.4 142.87ZM40.78 3.13C40.78 4.85 39.4 6.25 37.7 6.25C35.99 6.25 34.61 4.85 34.61 3.13C34.61 1.41 35.99 0.01 37.7 0.01C39.4 0.01 40.78 1.41 40.78 3.13ZM40.78 38.06C40.78 39.79 39.4 41.18 37.7 41.18C35.99 41.18 34.61 39.79 34.61 38.06C34.61 36.34 35.99 34.95 37.7 34.95C39.4 34.95 40.78 36.34 40.78 38.06ZM40.78 73C40.78 74.72 39.4 76.12 37.7 76.12C35.99 76.12 34.61 74.72 34.61 73C34.61 71.28 35.99 69.88 37.7 69.88C39.4 69.88 40.78 71.28 40.78 73ZM40.78 107.93C40.78 109.66 39.4 111.05 37.7 111.05C35.99 111.05 34.61 109.66 34.61 107.93C34.61 106.21 35.99 104.82 37.7 104.82C39.4 104.82 40.78 106.21 40.78 107.93ZM40.78 142.87C40.78 144.59 39.4 145.99 37.7 145.99C35.99 145.99 34.61 144.59 34.61 142.87C34.61 141.15 35.99 139.75 37.7 139.75C39.4 139.75 40.78 141.15 40.78 142.87ZM6.17 3.13C6.17 4.85 4.79 6.25 3.08 6.25C1.38 6.25 -0.01 4.85 -0.01 3.13C-0.01 1.41 1.38 0.01 3.08 0.01C4.79 0.01 6.17 1.41 6.17 3.13ZM6.17 38.06C6.17 39.79 4.79 41.18 3.08 41.18C1.38 41.18 -0.01 39.79 -0.01 38.06C-0.01 36.34 1.38 34.95 3.08 34.95C4.79 34.95 6.17 36.34 6.17 38.06ZM6.17 73C6.17 74.72 4.79 76.12 3.08 76.12C1.38 76.12 -0.01 74.72 -0.01 73C-0.01 71.28 1.38 69.88 3.08 69.88C4.79 69.88 6.17 71.28 6.17 73ZM6.17 107.93C6.17 109.66 4.79 111.05 3.08 111.05C1.38 111.05 -0.01 109.66 -0.01 107.93C-0.01 106.21 1.38 104.82 3.08 104.82C4.79 104.82 6.17 106.21 6.17 107.93ZM6.17 142.87C6.17 144.59 4.79 145.99 3.08 145.99C1.38 145.99 -0.01 144.59 -0.01 142.87C-0.01 141.15 1.38 139.75 3.08 139.75C4.79 139.75 6.17 141.15 6.17 142.87ZM110.01 142.87C110.01 144.59 108.63 145.99 106.92 145.99C105.22 145.99 103.83 144.59 103.83 142.87C103.83 141.15 105.22 139.75 106.92 139.75C108.63 139.75 110.01 141.15 110.01 142.87Z" />
	</g>
</svg>