<svg xmlns="http://www.w3.org/2000/svg" viewBox="0 0 22 18" width="22" height="18">
	<style>
		tspan { white-space:pre }
		.shp0 { fill: #ffffff } 
	</style>
	<g id="Testimonial">
		<g id="1">
			<g id="Avatar">
				<path id="Shape 612" class="shp0" d="M2.2 17.87C2.01 18 1.53 18.13 1.25 17.79L0.73 17.1C0.48 16.66 0.78 16.24 0.98 16.06C1.91 15.24 2.6 14.6 3.02 14.16C3.86 13.23 4.47 12.3 4.88 11.37C4.97 11.16 4.74 11.03 4.61 10.98C1.54 9.92 0 8.04 0 5.35C0 3.76 0.5 2.47 1.49 1.48C2.49 0.49 3.74 0 5.24 0C6.57 0 7.76 0.64 8.79 1.93C9.79 3.14 10.3 4.45 10.3 5.87C10.3 10.01 7.6 14.01 2.2 17.87L2.2 17.87ZM13.91 17.87C13.71 18 13.23 18.13 12.95 17.79L12.43 17.1C12.18 16.66 12.48 16.24 12.68 16.06C13.62 15.24 14.3 14.6 14.72 14.16C15.56 13.23 16.18 12.3 16.58 11.37C16.68 11.16 16.44 11.03 16.32 10.98C13.24 9.92 11.7 8.04 11.7 5.35C11.7 3.76 12.2 2.47 13.2 1.48C14.19 0.49 15.44 0 16.94 0C18.27 0 19.46 0.64 20.49 1.93C21.5 3.14 22 4.45 22 5.87C22 10.01 19.3 14.01 13.91 17.87L13.91 17.87Z" />
			</g>
		</g>
	</g>
</svg>