<svg xmlns="http://www.w3.org/2000/svg" viewBox="0 0 130 260" width="130" height="260">
	<style>
		tspan { white-space:pre }
		.shp0 { fill: #d9d9db } 
	</style>
	<g id="About">
		<path id="Shape 806 copy" class="shp0" d="M41.16 256.74C41.16 254.94 42.62 253.47 44.42 253.47C46.22 253.47 47.68 254.94 47.68 256.74C47.68 258.55 46.22 260.01 44.42 260.01C42.62 260.01 41.16 258.55 41.16 256.74ZM0 256.74C0 254.94 1.46 253.47 3.26 253.47C5.06 253.47 6.52 254.94 6.52 256.74C6.52 258.55 5.06 260.01 3.26 260.01C1.46 260.01 0 258.55 0 256.74ZM41.16 214.5C41.16 212.69 42.62 211.23 44.42 211.23C46.22 211.23 47.68 212.69 47.68 214.5C47.68 216.3 46.22 217.76 44.42 217.76C42.62 217.76 41.16 216.3 41.16 214.5ZM0 214.5C0 212.69 1.46 211.23 3.26 211.23C5.06 211.23 6.52 212.69 6.52 214.5C6.52 216.3 5.06 217.76 3.26 217.76C1.46 217.76 0 216.3 0 214.5ZM41.16 172.25C41.16 170.44 42.62 168.98 44.42 168.98C46.22 168.98 47.68 170.44 47.68 172.25C47.68 174.05 46.22 175.52 44.42 175.52C42.62 175.52 41.16 174.05 41.16 172.25ZM0 172.25C0 170.44 1.46 168.98 3.26 168.98C5.06 168.98 6.52 170.44 6.52 172.25C6.52 174.05 5.06 175.52 3.26 175.52C1.46 175.52 0 174.05 0 172.25ZM41.16 130C41.16 128.2 42.62 126.73 44.42 126.73C46.22 126.73 47.68 128.2 47.68 130C47.68 131.81 46.22 133.27 44.42 133.27C42.62 133.27 41.16 131.81 41.16 130ZM0 130C0 128.2 1.46 126.73 3.26 126.73C5.06 126.73 6.52 128.2 6.52 130C6.52 131.81 5.06 133.27 3.26 133.27C1.46 133.27 0 131.81 0 130ZM41.16 87.75C41.16 85.95 42.62 84.49 44.42 84.49C46.22 84.49 47.68 85.95 47.68 87.75C47.68 89.56 46.22 91.02 44.42 91.02C42.62 91.02 41.16 89.56 41.16 87.75ZM0 87.75C0 85.95 1.46 84.49 3.26 84.49C5.06 84.49 6.52 85.95 6.52 87.75C6.52 89.56 5.06 91.02 3.26 91.02C1.46 91.02 0 89.56 0 87.75ZM41.16 45.51C41.16 43.7 42.62 42.24 44.42 42.24C46.22 42.24 47.68 43.7 47.68 45.51C47.68 47.31 46.22 48.78 44.42 48.78C42.62 48.78 41.16 47.31 41.16 45.51ZM0 45.51C0 43.7 1.46 42.24 3.26 42.24C5.06 42.24 6.52 43.7 6.52 45.51C6.52 47.31 5.06 48.78 3.26 48.78C1.46 48.78 0 47.31 0 45.51ZM41.16 3.26C41.16 1.46 42.62 0 44.42 0C46.22 0 47.68 1.46 47.68 3.26C47.68 5.07 46.22 6.53 44.42 6.53C42.62 6.53 41.16 5.07 41.16 3.26ZM82.32 256.74C82.32 254.94 83.78 253.47 85.58 253.47C87.38 253.47 88.84 254.94 88.84 256.74C88.84 258.55 87.38 260.01 85.58 260.01C83.78 260.01 82.32 258.55 82.32 256.74ZM82.32 214.5C82.32 212.69 83.78 211.23 85.58 211.23C87.38 211.23 88.84 212.69 88.84 214.5C88.84 216.3 87.38 217.76 85.58 217.76C83.78 217.76 82.32 216.3 82.32 214.5ZM82.32 172.25C82.32 170.44 83.78 168.98 85.58 168.98C87.38 168.98 88.84 170.44 88.84 172.25C88.84 174.05 87.38 175.52 85.58 175.52C83.78 175.52 82.32 174.05 82.32 172.25ZM82.32 130C82.32 128.2 83.78 126.73 85.58 126.73C87.38 126.73 88.84 128.2 88.84 130C88.84 131.81 87.38 133.27 85.58 133.27C83.78 133.27 82.32 131.81 82.32 130ZM82.32 87.75C82.32 85.95 83.78 84.49 85.58 84.49C87.38 84.49 88.84 85.95 88.84 87.75C88.84 89.56 87.38 91.02 85.58 91.02C83.78 91.02 82.32 89.56 82.32 87.75ZM82.32 45.51C82.32 43.7 83.78 42.24 85.58 42.24C87.38 42.24 88.84 43.7 88.84 45.51C88.84 47.31 87.38 48.78 85.58 48.78C83.78 48.78 82.32 47.31 82.32 45.51ZM82.32 3.26C82.32 1.46 83.78 0 85.58 0C87.38 0 88.84 1.46 88.84 3.26C88.84 5.07 87.38 6.53 85.58 6.53C83.78 6.53 82.32 5.07 82.32 3.26ZM123.48 256.74C123.48 254.94 124.94 253.47 126.74 253.47C128.54 253.47 130 254.94 130 256.74C130 258.55 128.54 260.01 126.74 260.01C124.94 260.01 123.48 258.55 123.48 256.74ZM123.48 214.5C123.48 212.69 124.94 211.23 126.74 211.23C128.54 211.23 130 212.69 130 214.5C130 216.3 128.54 217.76 126.74 217.76C124.94 217.76 123.48 216.3 123.48 214.5ZM123.48 172.25C123.48 170.44 124.94 168.98 126.74 168.98C128.54 168.98 130 170.44 130 172.25C130 174.05 128.54 175.52 126.74 175.52C124.94 175.52 123.48 174.05 123.48 172.25ZM123.48 130C123.48 128.2 124.94 126.73 126.74 126.73C128.54 126.73 130 128.2 130 130C130 131.81 128.54 133.27 126.74 133.27C124.94 133.27 123.48 131.81 123.48 130ZM123.48 87.75C123.48 85.95 124.94 84.49 126.74 84.49C128.54 84.49 130 85.95 130 87.75C130 89.56 128.54 91.02 126.74 91.02C124.94 91.02 123.48 89.56 123.48 87.75ZM123.48 45.51C123.48 43.7 124.94 42.24 126.74 42.24C128.54 42.24 130 43.7 130 45.51C130 47.31 128.54 48.78 126.74 48.78C124.94 48.78 123.48 47.31 123.48 45.51ZM123.48 3.26C123.48 1.46 124.94 0 126.74 0C128.54 0 130 1.46 130 3.26C130 5.07 128.54 6.53 126.74 6.53C124.94 6.53 123.48 5.07 123.48 3.26ZM0 3.26C0 1.46 1.46 0 3.26 0C5.06 0 6.52 1.46 6.52 3.26C6.52 5.07 5.06 6.53 3.26 6.53C1.46 6.53 0 5.07 0 3.26Z" />
	</g>
</svg>