<svg xmlns="http://www.w3.org/2000/svg" viewBox="0 0 39 39" width="39" height="39">
	<style>
		tspan { white-space:pre }
		.shp0 { fill: #ee6d79 } 
	</style>
	<g id="Header">
		<g id="Logo ">
			<path id="Shape 611 copy" class="shp0" d="M33.26 5.68C25.87 -1.73 13.97 -1.91 6.33 5.11C6.06 5.2 5.8 5.34 5.58 5.55C5.36 5.77 5.23 6.03 5.14 6.31C-1.86 13.96 -1.69 25.88 5.71 33.3C9.5 37.11 14.49 39.01 19.48 39.01C24.47 39.01 29.46 37.11 33.26 33.3C40.86 25.68 40.86 13.29 33.26 5.68ZM19.48 3.75C21.34 3.75 23.19 4.09 24.96 4.74C21.62 5.82 17.84 8.13 14.18 11.5L9.79 7.1C12.63 4.87 16.05 3.75 19.48 3.75ZM4.77 24.97C2.91 19.94 3.7 14.16 7.13 9.78L11.51 14.17C8.15 17.84 5.84 21.63 4.77 24.97ZM8.37 30.63C6.85 29.1 8.46 23.16 14.18 16.85L18.84 21.51C19.21 21.88 19.69 22.07 20.17 22.07C20.65 22.07 21.14 21.88 21.5 21.51C22.24 20.77 22.24 19.58 21.5 18.84L16.86 14.19C21.67 9.8 26.27 7.81 28.85 7.81C29.64 7.81 30.24 8 30.6 8.35C31.42 9.17 31.3 11.24 30.3 13.75C29.05 16.88 26.63 20.34 23.48 23.5C16.7 30.3 10 32.26 8.37 30.63ZM14.02 34.24C17.35 33.16 21.13 30.84 24.79 27.47L29.17 31.87C24.81 35.31 19.04 36.09 14.02 34.24ZM31.84 29.2L27.45 24.8C30.32 21.67 32.55 18.29 33.81 15.15C33.96 14.77 34.08 14.39 34.2 14.02C36.05 19.05 35.27 24.83 31.84 29.2Z" />
		</g>
	</g>
</svg>